<svg xmlns="http://www.w3.org/2000/svg" xmlns:xlink="http://www.w3.org/1999/xlink" viewBox="0 0 1921 961"><defs><style>.cls-1,.cls-2{fill:none;}.cls-2,.cls-3,.cls-4{stroke:#f5f0f6;}.cls-2,.cls-3,.cls-4,.cls-5{stroke-miterlimit:10;}.cls-2{stroke-width:3px;}.cls-3,.cls-4{fill:#f5f0f6;}.cls-4{stroke-width:2px;}.cls-5{stroke:#000;fill:url(#New_Pattern_2);}</style><pattern id="New_Pattern_2" data-name="New Pattern 2" width="381.29" height="268.11" patternTransform="translate(0 62.77) scale(1 0.99)" patternUnits="userSpaceOnUse" viewBox="0 0 381.29 268.11"><rect class="cls-1" width="381.29" height="268.11"/><path class="cls-2" d="M364.88,273.88c0,.39-.05.78-.06,1.14-.64-.25-1.29-.52-1.93-.79-4.67-2-9.37-4.38-13-8a19.63,19.63,0,0,1-5.31-9.34,27.77,27.77,0,0,1-.32-9.79,1.94,1.94,0,0,1,3.85,0v0a22.76,22.76,0,0,0,2.11,7.78c2.35,4.55,7.13,6.57,11.88,7.7,2,.48,4.06.82,6.11,1.1"/><path class="cls-2" d="M368.22,263.76c.69.1,1.39.19,2.08.27a6.2,6.2,0,1,1-1.49,12.32,5.85,5.85,0,0,1-1.4-.34l-.08,0c-.83-.31-1.67-.64-2.51-1,0-.36,0-.75.06-1.14"/><path class="cls-2" d="M392,292.22c-.88,6.92-4,13-6.8,13-1,0-2.06-1.1-2.91-2.34a1.21,1.21,0,0,0-2,0c-.85,1.24-1.93,2.34-2.92,2.34-2.78,0-5.91-6.12-6.79-13-.81-6.32-6.05-7.79-5.76-17.2.84.33,1.68.66,2.51,1l.08,0a5.85,5.85,0,0,0,1.4.34A6.2,6.2,0,1,0,370.3,264c-.69-.08-1.39-.17-2.08-.27,3.31-4.53,8.49-6,13.07-6s9.76,1.5,13.07,6c-.69.1-1.39.19-2.08.27a6.2,6.2,0,1,0,1.49,12.32,6,6,0,0,0,1.4-.34l.07,0c.84-.31,1.68-.64,2.52-1C398.05,284.43,392.81,285.9,392,292.22Z"/><path class="cls-2" d="M13.07,263.76c2-.28,4.1-.62,6.11-1.1,4.75-1.13,9.52-3.15,11.88-7.7a23,23,0,0,0,2.11-7.78v0a1.94,1.94,0,0,1,3.85,0,27.77,27.77,0,0,1-.32,9.79,19.63,19.63,0,0,1-5.31,9.34c-3.62,3.59-8.32,6-13,8-.64.27-1.29.54-1.93.79q0-.56-.06-1.14"/><path class="cls-2" d="M16.41,273.88q0,.58.06,1.14h0c-.84.33-1.68.66-2.52,1l-.07,0a5.85,5.85,0,0,1-1.4.34A6.2,6.2,0,1,1,11,264c.69-.08,1.39-.17,2.08-.27"/><path class="cls-2" d="M10.71,292.22c-.88,6.92-4,13-6.79,13-1,0-2.07-1.1-2.92-2.34a1.21,1.21,0,0,0-2,0c-.85,1.24-1.93,2.34-2.92,2.34-2.78,0-5.91-6.12-6.79-13-.81-6.32-6.05-7.79-5.76-17.2.84.33,1.68.66,2.52,1l.07,0a5.85,5.85,0,0,0,1.4.34,6.22,6.22,0,0,0,6.93-5.42A6.21,6.21,0,0,0-11,264c-.69-.08-1.39-.17-2.08-.27,3.31-4.53,8.49-6,13.07-6s9.76,1.5,13.07,6c-.69.1-1.39.19-2.08.27a6.2,6.2,0,1,0,1.49,12.32,5.85,5.85,0,0,0,1.4-.34l.07,0c.84-.31,1.68-.64,2.52-1C16.76,284.43,11.52,285.9,10.71,292.22Z"/><path class="cls-3" d="M386.77,117.15a24.91,24.91,0,0,0,5,33.39,29.53,29.53,0,0,0,38.89-1.18,33.69,33.69,0,0,0,2.23-46.79,40.31,40.31,0,0,0-43.66-10.91c-7.87,2.79-11.4,13-3.52,19.83.94.82,2,1.54,3.27,2.56C388.06,115.35,387.38,116.23,386.77,117.15Zm39.5,32.4c-3.2,3.1-7.15,4.41-11.21,5-9.66,1.43-18-1.33-24.61-8.64a22.35,22.35,0,0,1,1.22-31,19.4,19.4,0,0,1,26.47-.45,16.08,16.08,0,0,1,0,24,13.82,13.82,0,0,1-19-.93,11.36,11.36,0,0,1-.25-15.18,9.84,9.84,0,0,1,13-1.56,7.91,7.91,0,0,1,1.94,11.31,6.89,6.89,0,0,1-7.68,2.45,5.63,5.63,0,0,1-3.64-7.58,10.87,10.87,0,0,1,.92-1.67c.42-.66.27-1.37-.34-1.57a1.9,1.9,0,0,0-1.61.57,7.6,7.6,0,0,0-.67,8.85,8.37,8.37,0,0,0,8.59,4c7.35-.87,10.84-9.59,6.4-15.74-4.26-5.9-13.31-6.34-18.44-.89a13.55,13.55,0,0,0,0,18.57c4.28,4.45,9.55,6.16,15.69,4.56,1.53-.4,3-1,4.62-1.49A19.26,19.26,0,0,1,426.27,149.55Zm-42.53-48.47c.62-4.37,3.88-7,10.14-7.91a67,67,0,0,0,.8,7.79,64.85,64.85,0,0,0,2.51,7.36l-5.87,3.54C385.58,109.34,383.08,105.73,383.74,101.08Zm20.08-1.36c.11,2.32.45,4.63.71,7.21l-4.07.51c-3.69-4.55-4.7-9-3.36-15,1.9-1,4.07-.81,6.69-.61C403.79,94.75,403.7,97.24,403.82,99.72Zm3.58,7.21c-1.36-4.9-2-9.64-.57-14.43,3.6-.48,3.6-.48,7.72,1.27-1.12,4.53-2.25,9-3.51,14.14ZM431,104.34c-1.85,1.45-3.65,2.71-5.27,4.16s-3.1,3.12-4.61,4.66c-1.54-.13-2.16-1-1.89-2.24a22.42,22.42,0,0,1,6.18-11.84A18,18,0,0,1,431,104.34Zm-7.12,13a1.55,1.55,0,0,1-.64-2.5,20.75,20.75,0,0,1,9.75-8.2c.71,1,1.41,1.89,1.94,2.84a30.72,30.72,0,0,1,1.25,2.81ZM414.23,108a23.46,23.46,0,0,1,3.18-13.08c2.2.09,3.67,1.23,5.53,2.42-1.22,2-2.51,4-3.54,6s-1.85,4.28-2.74,6.35C415.14,109.94,414.27,109.26,414.23,108Zm11.42,26.05a27.21,27.21,0,0,1,9.94,3.27c.23,2-.86,3.28-2.2,4.8-1.61-1-3.14-2.1-4.72-3.06s-3.29-1.87-4.83-2.74C423.72,134.8,424.2,133.83,425.65,134.06Zm12.65-15.24c-.5.34-.73.59-1,.65-3.55.84-7.09,1.67-10.65,2.44-.39.08-1.2-.19-1.23-.38-.07-.55-.05-1.39.3-1.67a19.07,19.07,0,0,1,11.5-4.44C437.61,116.64,438,117.77,438.3,118.82Zm-10.81,5.44c1.5-.47,3-1.09,4.49-1.44,2-.45,4-.7,5.86-1,1.39,1.37,1.22,2.7.69,4.36-4.08.27-8.22.73-12.28,1.11C425.8,125.54,426.18,124.67,427.49,124.26Zm10.62,4.84c.49,2.26-.25,3.82-1,5.73L426,131.38C429.87,128.57,434,129,438.11,129.1Zm-9.35,18.67-8.27-7.3a1.13,1.13,0,0,1,.78-1.48,3.47,3.47,0,0,1,2.23,0,29.89,29.89,0,0,1,8.45,5.52Z"/><path class="cls-2" d="M364.88,5.77q0,.59-.06,1.14l-1.93-.79c-4.67-2-9.37-4.38-13-8a19.58,19.58,0,0,1-5.31-9.34,27.71,27.71,0,0,1-.32-9.78,1.94,1.94,0,0,1,2.16-1.68,1.93,1.93,0,0,1,1.69,1.7v0a22.82,22.82,0,0,0,2.11,7.78c2.35,4.55,7.13,6.56,11.88,7.69,2,.48,4.06.83,6.11,1.11"/><path class="cls-2" d="M394.36-4.35c2.05-.28,4.1-.63,6.11-1.11,4.75-1.13,9.52-3.14,11.88-7.69a23.22,23.22,0,0,0,2.11-7.78v0a1.93,1.93,0,0,1,1.69-1.7A1.94,1.94,0,0,1,418.31-21,27.71,27.71,0,0,1,418-11.2a19.52,19.52,0,0,1-5.32,9.34c-3.61,3.6-8.31,6-13,8l-1.93.79q0-.55-.06-1.14"/><path class="cls-2" d="M368.22-4.35c.69.1,1.39.18,2.08.27a6.21,6.21,0,0,1,5.44,6.9,6.22,6.22,0,0,1-6.93,5.42,6.37,6.37,0,0,1-1.4-.34l-.08,0-2.51-1q0-.55.06-1.14"/><path class="cls-2" d="M397.7,5.77q0,.59.06,1.14h0q-1.26.5-2.52,1l-.07,0a6.51,6.51,0,0,1-1.4.34,6.22,6.22,0,0,1-6.93-5.42,6.21,6.21,0,0,1,5.44-6.9c.69-.09,1.39-.17,2.08-.27"/><path class="cls-2" d="M392,24.11c-.88,6.91-4,13-6.8,13-1,0-2.06-1.11-2.91-2.34a1.21,1.21,0,0,0-2,0c-.85,1.23-1.93,2.34-2.92,2.34-2.78,0-5.91-6.13-6.79-13-.81-6.32-6.05-7.79-5.76-17.2l2.51,1,.08,0a6.37,6.37,0,0,0,1.4.34,6.22,6.22,0,0,0,6.93-5.42,6.21,6.21,0,0,0-5.44-6.9c-.69-.09-1.39-.17-2.08-.27,3.31-4.53,8.49-6,13.07-6s9.76,1.5,13.07,6c-.69.1-1.39.18-2.08.27a6.21,6.21,0,0,0-5.44,6.9,6.22,6.22,0,0,0,6.93,5.42,6.51,6.51,0,0,0,1.4-.34l.07,0q1.26-.47,2.52-1C398.05,16.32,392.81,17.79,392,24.11Z"/><path class="cls-4" d="M202.27,288.4a1.28,1.28,0,0,1,.28,1.26c-.46,1.55-2.76,9-4.52,11.45a3.48,3.48,0,0,1-.83,3.37l-10.28,10.36a9.24,9.24,0,0,0-2.49,8,12.45,12.45,0,0,1,.15,1.93c0,6.29-4.79,11.38-10.69,11.38h-2.56a9.88,9.88,0,0,1-1.8-.16c-5.82-1.06-9.74-6.95-8.74-13.15a9.21,9.21,0,0,0-2.49-8L148,304.49a3.48,3.48,0,0,1-.83-3.37c-1.76-2.42-4.06-9.91-4.52-11.46a1.23,1.23,0,0,1,0-.76,1.15,1.15,0,0,1,1.47-.81c1.45.49,8.41,2.91,10.72,4.79a3,3,0,0,1,2.47,1.05l6.21,7.12a1.6,1.6,0,0,0,1.31.56,1.7,1.7,0,0,0,1.52-1.86L165.29,283a3.26,3.26,0,0,1,2-3.23c.63-3.27,3.65-9.6,4.31-11a1.25,1.25,0,0,1,.5-.54,1.15,1.15,0,0,1,1.58.54c.66,1.36,3.68,7.7,4.32,11a3.21,3.21,0,0,1,2,3.22l-1.09,16.78a1.84,1.84,0,0,0,.52,1.4,1.58,1.58,0,0,0,2.32-.1l6.21-7.12a3,3,0,0,1,2.47-1.05c2.32-1.88,9.28-4.3,10.72-4.79a1.14,1.14,0,0,1,1.19.31Zm-32.8-7.62a3.15,3.15,0,1,0,6.28,0c0-1.25-1.61-5.25-3.14-8.63C171.08,275.53,169.47,279.54,169.47,280.78Zm-23.83,10.47c1.16,3.54,2.68,7.59,3.51,8.47l.13.14a3,3,0,0,0,4.44-.14,3.5,3.5,0,0,0-.13-4.73C152.76,294.11,149,292.48,145.64,291.25ZM195.28,303a5.75,5.75,0,0,1-1.43.21l-.34,0a5.69,5.69,0,0,1-5.12-6.15l-5,5.73a3.86,3.86,0,0,1-2.89,1.36,3.7,3.7,0,0,1-1.6-.36,4.22,4.22,0,0,1-2.39-4.17l1.05-16.31a5.65,5.65,0,0,1-2.63,2.8,5.33,5.33,0,0,1-7.27-2.8l1.05,16.31a4.21,4.21,0,0,1-2.39,4.17,3.7,3.7,0,0,1-1.6.36,3.83,3.83,0,0,1-2.89-1.36l-5-5.73a6,6,0,0,1-1.59,4.46,5.23,5.23,0,0,1-5.3,1.5l10,10a11.84,11.84,0,0,1,3.19,10.19,9.51,9.51,0,0,0-.12,1.51,8.63,8.63,0,0,0,8.35,8.89h2.56a8.39,8.39,0,0,0,1.41-.12,8.87,8.87,0,0,0,6.82-10.28A11.81,11.81,0,0,1,185.31,313Zm.8-3.26c.82-.88,2.35-4.93,3.5-8.47-3.33,1.24-7.12,2.86-8,3.74l0,.05a3.49,3.49,0,0,0,0,4.73,3,3,0,0,0,4.44,0Z"/><path class="cls-2" d="M272.56,152.41a4,4,0,0,1-2.17,2.05.78.78,0,0,0-.44,1,4.17,4.17,0,0,1-.16,3c-1,2.25-4,3.08-6.56,1.86a5.34,5.34,0,0,1-3.18-4.56,1.31,1.31,0,0,0-.69-1.16c-4.89-2.54-11.79-6.1-18-9s-13.32-6-18.37-8.17a1.37,1.37,0,0,0-1.4.2,5.19,5.19,0,0,1-5.46.45c-2.59-1.23-3.85-4.05-2.81-6.3a4,4,0,0,1,2-2,1,1,0,0,0,.55-1.2,4.15,4.15,0,0,1,.2-2.84c1-2.25,4-3.08,6.57-1.86a5.31,5.31,0,0,1,3.17,4.55,1.41,1.41,0,0,0,.75,1.2c4.89,2.53,11.76,6.07,18,9s13.36,6,18.42,8.19a1.23,1.23,0,0,0,1.3-.19,5.19,5.19,0,0,1,5.51-.48C272.34,147.34,273.6,150.16,272.56,152.41Z"/><path class="cls-2" d="M267.18,182.26a4.7,4.7,0,0,1-.74.61.94.94,0,0,0-.41.94,4.33,4.33,0,0,1-1.24,3.74,4.16,4.16,0,0,1-3.68,1.25.91.91,0,0,0-.93.42,4.38,4.38,0,0,1-6.94.56,5.32,5.32,0,0,1-.78-6.31,1.15,1.15,0,0,0-.1-1.32c-7.1-8.72-18.93-21.31-26.3-28.43a1.61,1.61,0,0,0-1.71-.34A5.07,5.07,0,0,1,219,152c-2-2-2.21-5-.51-6.76a3.91,3.91,0,0,1,2.34-1.12A1.26,1.26,0,0,0,222,143a3.92,3.92,0,0,1,1.11-2.37c1.69-1.72,4.68-1.49,6.66.51a5.23,5.23,0,0,1,1.37,5.4,1.7,1.7,0,0,0,.34,1.74c7,7.48,19.44,19.46,28,26.67a1.13,1.13,0,0,0,1.3.09,5.16,5.16,0,0,1,6.23.79A4.44,4.44,0,0,1,267.18,182.26Z"/><path class="cls-3" d="M5.48,117.15a24.92,24.92,0,0,0,5,33.39,29.55,29.55,0,0,0,38.9-1.18,33.69,33.69,0,0,0,2.22-46.79A40.31,40.31,0,0,0,8,91.66c-7.87,2.79-11.4,13-3.52,19.83.94.82,2,1.54,3.27,2.56C6.77,115.35,6.09,116.23,5.48,117.15ZM45,149.55c-3.2,3.1-7.15,4.41-11.21,5-9.66,1.43-18-1.33-24.61-8.64a22.35,22.35,0,0,1,1.22-31,19.4,19.4,0,0,1,26.47-.45,16.08,16.08,0,0,1,0,24,13.82,13.82,0,0,1-19-.93,11.36,11.36,0,0,1-.25-15.18,9.84,9.84,0,0,1,13-1.56,7.91,7.91,0,0,1,1.94,11.31,6.89,6.89,0,0,1-7.68,2.45A5.64,5.64,0,0,1,21.18,127a10.87,10.87,0,0,1,.92-1.67c.42-.66.27-1.37-.34-1.57a1.9,1.9,0,0,0-1.61.57,7.6,7.6,0,0,0-.67,8.85,8.37,8.37,0,0,0,8.59,4c7.35-.87,10.84-9.59,6.4-15.74-4.26-5.9-13.31-6.34-18.44-.89a13.55,13.55,0,0,0,0,18.57c4.28,4.45,9.55,6.16,15.69,4.56,1.53-.4,3-1,4.62-1.49A19.2,19.2,0,0,1,45,149.55ZM2.45,101.08c.62-4.37,3.88-7,10.14-7.91a67,67,0,0,0,.8,7.79,64.85,64.85,0,0,0,2.51,7.36L10,111.86C4.29,109.34,1.79,105.73,2.45,101.08Zm20.08-1.36c.11,2.32.45,4.63.71,7.21l-4.07.51c-3.69-4.55-4.7-9-3.36-15,1.9-1,4.07-.81,6.69-.61C22.5,94.75,22.41,97.24,22.53,99.72Zm3.58,7.21c-1.36-4.9-2-9.64-.57-14.43,3.61-.48,3.61-.48,7.72,1.27-1.12,4.53-2.25,9-3.51,14.14Zm23.58-2.59c-1.85,1.45-3.65,2.71-5.27,4.16s-3.1,3.12-4.61,4.66c-1.54-.13-2.16-1-1.89-2.24A22.42,22.42,0,0,1,44.1,99.08,18,18,0,0,1,49.69,104.34Zm-7.12,13a1.55,1.55,0,0,1-.64-2.5,20.75,20.75,0,0,1,9.75-8.2c.71,1,1.41,1.89,1.94,2.84a30.72,30.72,0,0,1,1.25,2.81ZM32.94,108a23.46,23.46,0,0,1,3.18-13.08c2.2.09,3.67,1.23,5.53,2.42-1.22,2-2.51,4-3.54,6s-1.85,4.28-2.73,6.35C33.85,109.94,33,109.26,32.94,108Zm11.42,26.05a27.21,27.21,0,0,1,9.94,3.27c.23,2-.86,3.28-2.19,4.8-1.62-1-3.15-2.1-4.73-3.06s-3.28-1.87-4.83-2.74C42.43,134.8,42.91,133.83,44.36,134.06ZM57,118.82c-.51.34-.74.59-1,.65-3.54.84-7.09,1.67-10.65,2.44-.39.08-1.2-.19-1.23-.38-.07-.55-.05-1.39.3-1.67a19.08,19.08,0,0,1,11.51-4.44C56.32,116.64,56.68,117.77,57,118.82ZM46.2,124.26c1.5-.47,3-1.09,4.5-1.44,2-.45,4-.7,5.85-1,1.39,1.37,1.22,2.7.69,4.36-4.08.27-8.22.73-12.28,1.11C44.51,125.54,44.89,124.67,46.2,124.26Zm10.62,4.84c.49,2.26-.25,3.82-1,5.73l-11.14-3.45C48.58,128.57,52.73,129,56.82,129.1Zm-9.35,18.67-8.27-7.3A1.13,1.13,0,0,1,40,139a3.47,3.47,0,0,1,2.23,0,29.75,29.75,0,0,1,8.45,5.52Z"/><path class="cls-3" d="M7.68,127.94c-.57-.73-1.26-1.23-1.19-1.57a17.37,17.37,0,0,1,8.09-11.77,1.32,1.32,0,0,1,1.23.23,1.43,1.43,0,0,1,.07,1.25,3.26,3.26,0,0,1-1,1A18,18,0,0,0,9,125.55,16,16,0,0,1,7.68,127.94Z"/><path class="cls-3" d="M7.42,132.76a38.06,38.06,0,0,1,2.64,7.35c.07.24-.4.74-.72,1-.14.1-.67-.07-.82-.27a9.67,9.67,0,0,1-2.19-7C6.35,133.59,6.73,133.41,7.42,132.76Z"/><path class="cls-2" d="M13.07-4.35c2-.28,4.1-.63,6.11-1.11,4.75-1.13,9.52-3.14,11.88-7.69a23,23,0,0,0,2.11-7.78v0a1.93,1.93,0,0,1,1.69-1.7A1.94,1.94,0,0,1,37-21a27.71,27.71,0,0,1-.32,9.78,19.58,19.58,0,0,1-5.31,9.34c-3.62,3.6-8.32,6-13,8l-1.93.79q0-.55-.06-1.14"/><path class="cls-2" d="M16.41,5.77q0,.59.06,1.14h0q-1.26.5-2.52,1l-.07,0a6.37,6.37,0,0,1-1.4.34A6.22,6.22,0,0,1,5.55,2.82,6.21,6.21,0,0,1,11-4.08c.69-.09,1.39-.17,2.08-.27"/><path class="cls-2" d="M10.71,24.11c-.88,6.91-4,13-6.79,13-1,0-2.07-1.11-2.92-2.34a1.21,1.21,0,0,0-2,0c-.85,1.23-1.93,2.34-2.92,2.34-2.78,0-5.91-6.13-6.79-13-.81-6.32-6.05-7.79-5.76-17.2q1.26.5,2.52,1l.07,0a6.37,6.37,0,0,0,1.4.34A6.22,6.22,0,0,0-5.55,2.82,6.21,6.21,0,0,0-11-4.08c-.69-.09-1.39-.17-2.08-.27,3.31-4.53,8.49-6,13.07-6s9.76,1.5,13.07,6c-.69.1-1.39.18-2.08.27a6.21,6.21,0,0,0-5.44,6.9,6.22,6.22,0,0,0,6.93,5.42,6.37,6.37,0,0,0,1.4-.34l.07,0q1.26-.47,2.52-1C16.76,16.32,11.52,17.79,10.71,24.11Z"/><path class="cls-4" d="M202.27,20.28a1.29,1.29,0,0,1,.28,1.26c-.46,1.55-2.76,9-4.52,11.45a3.5,3.5,0,0,1-.83,3.38L186.92,46.73a9.24,9.24,0,0,0-2.49,8,12.32,12.32,0,0,1,.15,1.92c0,6.29-4.79,11.39-10.69,11.39h-2.56a9.88,9.88,0,0,1-1.8-.16c-5.82-1.06-9.74-7-8.74-13.15a9.21,9.21,0,0,0-2.49-8L148,36.37a3.48,3.48,0,0,1-.83-3.37c-1.76-2.42-4.06-9.9-4.52-11.46a1.2,1.2,0,0,1,0-.75,1.15,1.15,0,0,1,1.47-.81c1.45.49,8.41,2.91,10.72,4.79a3,3,0,0,1,2.47,1.05l6.21,7.12a1.57,1.57,0,0,0,1.31.55,1.7,1.7,0,0,0,1.52-1.86l-1.08-16.77a3.24,3.24,0,0,1,2-3.22c.63-3.27,3.65-9.6,4.31-11a1.22,1.22,0,0,1,.5-.53,1.14,1.14,0,0,1,1.58.53c.66,1.37,3.68,7.7,4.32,11a3.21,3.21,0,0,1,2,3.22l-1.09,16.77a1.83,1.83,0,0,0,.52,1.4,1.57,1.57,0,0,0,2.32-.09l6.21-7.12a3,3,0,0,1,2.47-1.05c2.32-1.88,9.28-4.3,10.72-4.79a1.11,1.11,0,0,1,1.19.3Zm-32.8-7.61a3.15,3.15,0,1,0,6.28,0c0-1.25-1.61-5.26-3.14-8.64C171.08,7.42,169.47,11.42,169.47,12.67ZM145.64,23.14c1.16,3.54,2.68,7.58,3.51,8.47a1.59,1.59,0,0,0,.13.13,3,3,0,0,0,4.44-.14,3.49,3.49,0,0,0-.13-4.72C152.76,26,149,24.37,145.64,23.14Zm49.64,11.73a5.31,5.31,0,0,1-1.43.2h-.34a5.7,5.7,0,0,1-5.12-6.16l-5,5.73A3.79,3.79,0,0,1,180.5,36a3.84,3.84,0,0,1-1.6-.35,4.23,4.23,0,0,1-2.39-4.18l1.05-16.31A5.63,5.63,0,0,1,174.93,18a5.33,5.33,0,0,1-7.27-2.81l1.05,16.31a4.22,4.22,0,0,1-2.39,4.18,3.84,3.84,0,0,1-1.6.35,3.79,3.79,0,0,1-2.89-1.36l-5-5.72a6,6,0,0,1-1.59,4.46,5.23,5.23,0,0,1-5.3,1.5l10,10.05a11.83,11.83,0,0,1,3.19,10.19,9.48,9.48,0,0,0-.12,1.5,8.64,8.64,0,0,0,8.35,8.9h2.56a7.47,7.47,0,0,0,1.41-.13,8.86,8.86,0,0,0,6.82-10.27,11.8,11.8,0,0,1,3.19-10.19Zm.8-3.26c.82-.88,2.35-4.93,3.5-8.47-3.33,1.23-7.12,2.85-8,3.74l0,0a3.49,3.49,0,0,0,0,4.73,3,3,0,0,0,4.44,0Z"/></pattern></defs><g id="Layer_2" data-name="Layer 2"><g id="Layer_3" data-name="Layer 3"><rect class="cls-5" x="0.5" y="0.5" width="1920" height="960"/></g></g></svg>