<svg xmlns="http://www.w3.org/2000/svg" xmlns:xlink="http://www.w3.org/1999/xlink" xmlns:fi="http://pattern.flaticon.com/" x="0" y="0" width="1920" height="960" viewBox="0 0 1680 840"><rect x="0px" y="0px" width="100%" height="100%" opacity="0" fill="#ffffff"/><defs><g transform="matrix(0.11720436066389084 0 0 0.11720436066389084 45 138)" id="L1_32"><path d="m62.015625 184.757812c-70.78125 73.824219-69.625 190.671876 2.613281 263.074219 85.460938 85.457031 224.015625 85.457031 309.476563 0 99.613281-99.617187 99.613281-261.125 0-360.746093-29.015625-28.972657-63.710938-51.636719-101.902344-66.558594-.558594-.300782-1.148437-.539063-1.757813-.710938-51.425781-19.785156-107.339843-24.882812-161.496093-14.71875-.472657.050782-.941407.144532-1.398438.28125-18.699219 3.535156-37.015625 8.851563-54.699219 15.878906-22.617187 9.109376-40.136718 27.636719-47.960937 50.730469-7.828125 23.09375-5.1875 48.453125 7.230469 69.4375 11.695312 19.304688 29.144531 34.457031 49.894531 43.332031zm14.679687 251.007813c-66.613281-66.761719-66.613281-174.847656 0-241.613281 56.460938-56.320313 147.851563-56.320313 204.3125 0 47.625 47.636718 47.625 124.859375 0 172.492187-40.164062 40.078125-105.191406 40.078125-145.355468 0-33.6875-33.765625-33.6875-88.429687 0-122.195312 17.933594-17.492188 43.621094-24.503907 67.957031-18.550781 22.582031 4.425781 41.199219 20.351562 49.066406 41.976562 6.742188 19.742188 2.78125 41.566406-10.46875 57.683594-14.144531 17.40625-38.003906 23.53125-58.785156 15.09375-14.074219-4.960938-24.605469-16.816406-27.878906-31.375-2.960938-13.832032 1.300781-28.21875 11.316406-38.203125 3.234375-3.347657 3.1875-8.671875-.105469-11.964844-3.292968-3.289063-8.613281-3.335937-11.960937-.101563-14.113281 14.0625-20.117188 34.328126-15.941407 53.808594 4.410157 20.226563 18.917969 36.761719 38.398438 43.761719 27.65625 11.167969 59.363281 2.964844 78.132812-20.214844 16.984376-20.652343 22.066407-48.628906 13.429688-73.933593-9.6875-27.238282-32.941406-47.402344-61.277344-53.128907-30.097656-7.320312-61.839844 1.386719-83.992187 23.039063-40.335938 40.4375-40.335938 105.890625 0 146.328125 39.40625 39.328125 100.6875 46.375 147.992187 17.027343 20.121094 11.355469 51.003906 32.050782 68.457032 59.175782-80.335938 59.863281-192.421876 51.726562-263.273438-19.105469zm114.132813-417.363281c22.101563 2.121094 43.871094 6.863281 64.851563 14.121094-21.835938 36.019531-27.015626 80.214843-27.628907 109.996093-10.503906-3.308593-21.316406-5.535156-32.273437-6.648437-11.652344-38.089844-13.355469-78.53125-4.949219-117.46875zm124.664063 43.269531c-24.65625 28.144531-41.738282 62.105469-49.628907 98.679687-6.652343-4.273437-13.613281-8.054687-20.824219-11.304687 0-28.21875 4.003907-74.625 26.847657-110.25 15.179687 6.328125 29.769531 13.984375 43.605469 22.875zm98.902343 116.3125c-34.976562 3.976563-68.109375 17.773437-95.574219 39.789063-3.1875-6.277344-6.851562-12.304688-10.957031-18.023438 19.472657-30.433594 46.660157-55.164062 78.796875-71.679688 11.234375 15.449219 20.546875 32.210938 27.734375 49.914063zm13.925781 49.269531c-33.652343 2.398438-66.699218 10.210938-97.863281 23.144532-1.21875-5.496094-2.773437-10.910157-4.65625-16.214844 26.726563-22.582032 59.773438-36.363282 94.625-39.457032 3.398438 10.640626 6.039063 21.511719 7.894531 32.527344zm3.414063 40.210938c0 4.691406-.171875 9.386718-.445313 14.011718-32.859374-2.445312-65.894531.203126-97.945312 7.847657.1875-2.960938.433594-5.921875.433594-8.925781 0-4.265626-.238282-8.53125-.613282-12.703126 30.957032-13.183593 63.882813-21.160156 97.441407-23.605468.757812 7.726562 1.136719 15.515625 1.144531 23.375zm-13.542969 79.46875c-28.152344-14.363282-58.519531-23.882813-89.832031-28.160156 1.066406-3.746094 2.046875-7.515626 2.800781-11.367188 32.160156-8.183594 65.414063-11.242188 98.53125-9.0625-2.101562 16.558594-5.953125 32.84375-11.484375 48.589844zm-27.804687 54.613281c-23.054688-20.117187-49.273438-36.289063-77.601563-47.863281 3.710938-5.90625 6.96875-12.085938 9.746094-18.484375 31.175781 3.859375 61.414062 13.234375 89.300781 27.691406-5.914062 13.53125-13.085937 26.472656-21.425781 38.65625zm-28.371094 34.21875c-2.832031 2.832031-5.769531 5.546875-8.738281 8.191406-17.707032-24.367187-40.484375-44.609375-66.765625-59.332031 2.21875-1.910156 4.445312-3.804688 6.546875-5.914062 3.386718-3.394532 6.601562-6.964844 9.625-10.691407 28.398437 11.128907 54.632812 27.140625 77.507812 47.316407-5.667968 7.144531-11.730468 13.964843-18.160156 20.429687zm13.96875-321.347656c-31.90625 17.003906-59.183594 41.53125-79.472656 71.457031-1.167969-1.246094-2.226563-2.558594-3.410157-3.789062-3.855468-3.839844-7.902343-7.488282-12.128906-10.921876 6.5625-30.539062 20.429688-70.238281 48.964844-99.558593 11.375 8.375 22.105469 17.597656 32.09375 27.582031 4.90625 4.84375 9.53125 9.964844 13.953125 15.230469zm-202.453125-97.1875c-8.03125 39.03125-6.570312 79.417969 4.265625 117.761719-12.320313.03125-24.59375 1.460937-36.589844 4.265624-24.214843-34.347656-33.03125-77.230468-24.335937-118.347656 18.710937-3.144531 37.695312-4.375 56.660156-3.679687zm-152.578125 60.535156c6.15625-18.515625 20.144531-33.386719 38.25-40.667969 12.859375-5.15625 26.082031-9.351562 39.558594-12.5625-6.710938 41.746094 2.367187 84.492188 25.472656 119.902344-17.640625 6.265625-34.042969 15.574219-48.46875 27.503906-20.382813-7.046875-37.691406-20.941406-48.980469-39.3125-9.898437-16.546875-12.03125-36.605468-5.832031-54.863281zm0 0" fill="#8c8c8c"/><path d="m62.375 335.335938c-.457031-3.011719-2.488281-5.554688-5.328125-6.667969-2.839844-1.109375-6.054687-.621094-8.4375 1.28125-2.382813 1.902343-3.570313 4.933593-3.113281 7.949219 2.609375 17.542968 8.246094 34.5 16.65625 50.117187 2.238281 4.148437 7.417968 5.695313 11.570312 3.457031 4.148438-2.238281 5.695313-7.414062 3.457032-11.566406-7.484376-13.882812-12.496094-28.964844-14.804688-44.570312zm0 0" fill="#8c8c8c"/><path d="m54.253906 289.835938c4.582032 1.066406 9.160156-1.777344 10.238282-6.355469 5.816406-24.695313 18.414062-47.269531 36.378906-65.1875 5.617187-5.621094 11.828125-10.621094 18.515625-14.914063 3.96875-2.542968 5.125-7.820312 2.582031-11.789062s-7.820312-5.125-11.789062-2.582032c-7.707032 4.960938-14.859376 10.734376-21.332032 17.21875-20.199218 20.175782-34.359375 45.59375-40.875 73.386719-1.0625 4.554688 1.738282 9.113281 6.28125 10.222657zm0 0" fill="#8c8c8c"/></g><g transform="matrix(0.08214779943227768 0 0 0.08214779943227768 64.24876176635735 28.842865832410325)" id="L1_33"><path d="m489.378906 247.171875c-10.488281-25.65625-22.378906-54.738281-22.378906-67.039063 0-8.953124 7.921875-13.910156 20.972656-21.003906 11.261719-6.125 24.027344-13.066406 24.027344-27.03125 0-17.261718-14.121094-21.953125-24.433594-25.378906-7.199218-2.390625-14.644531-4.863281-20.496094-10.71875-8.300781-8.308594-17.726562-18.492188-26.839843-28.335938-9.445313-10.203124-19.210938-20.753906-28.160157-29.707031-16.152343-16.164062-46.191406-12.777343-72.695312-9.785156-8.441406.949219-16.417969 1.851563-22.375 1.851563-8.582031 0-20.136719-5.828126-32.371094-11.992188-16.769531-8.453125-35.777344-18.03125-56.628906-18.03125-17.015625 0-42.570312 13.851562-78.125 42.351562-25.125 20.136719-49.503906 43.199219-59.945312 53.648438-12.78125 12.792969-64.792969 36-83.757813 43.863281-2.550781 1.058594-4.550781 3.128907-5.527344 5.714844-.976562 2.585937-.835937 5.464844.382813 7.945313l27.054687 55.085937-27.390625 69.945313c-1.046875 2.667968-.898437 5.65625.402344 8.207031l22.472656 43.996093 14.722656 59.917969c.675782 2.746094 2.480469 5.078125 4.96875 6.421875l36.246094 19.53125 28.582032 56.25c.890624 1.753906 2.277343 3.203125 3.984374 4.171875l60 34.023438c1.519532.863281 7.089844 1.128906 8.132813.777343 25.230469-8.535156 70.582031-16.964843 84.878906-3.257812 2.316407 2.222656 5.554688 3.191406 8.707031 2.621094 20.542969-3.738282 114.425782-30.398438 132.199219-35.460938 11.742188 3.125 53.332031 11.546875 75.113281-18.550781 16.09375-22.246094 18.476563-32.902344 18.820313-35.636719.003906-.039062.011719-.082031.015625-.121094 0 0 12.019531-107.484374 11.820312-108.378906-1.628906-15.144531-11.3125-38.835937-22.378906-65.894531zm-397.636718 153.316406-35.089844-18.910156-11.585938-47.144531 25.453125-7.367188 4.570313 33.546875c.6875 5.019531 4.976562 8.65625 9.898437 8.65625.449219 0 .90625-.027343 1.363281-.089843 5.472657-.75 9.304688-5.792969 8.558594-11.269532l-2.570312-18.859375 102.261718 88.746094-22.8125 60.109375-35.839843-20.324219 17.660156-11.972656c2.746094-1.859375 4.390625-4.964844 4.390625-8.285156v-14.007813c0-5.527344-4.476562-10.007812-10-10.007812-5.519531 0-10 4.480468-10 10.007812v8.703125l-17.222656 11.675781-24.863282-48.933593c-.921874-1.816407-2.378906-3.308594-4.171874-4.273438zm388.367187 18.289063c-.285156 1.121094-2.710937 9.410156-15.207031 26.683594-12.207032 16.871093-36.878906 14.453124-48.902344 12.054687v-19.195313c0-5.527343-4.476562-10.007812-10-10.007812-5.519531 0-10 4.480469-10 10.007812v19.460938c-23.441406 6.660156-97.050781 27.441406-121.398438 32.835938-20.875-14.503907-58.078124-8.882813-81.1875-3.308594l20.152344-53.109375c21.082032-3.964844 53.144532-6.402344 69.433594.539062v19.59375c0 5.527344 4.480469 10.007813 10 10.007813 5.523438 0 10-4.480469 10-10.007813v-17.101562c6.933594-4 25.515625-14.453125 45.867188-23.703125 45.9375-20.875 58.382812-16.507813 60.410156-15.421875 14.296875 7.664062 35.003906 4.9375 55.40625-7.285157 6.75-4.046874 13.851562-9.4375 20.4375-15.9375zm-25.699219-45.128906c-13.882812 8.320312-27.894531 10.996093-35.6875 6.816406-8.96875-4.808594-26.835937-8.492188-78.277344 14.910156-19.273437 8.765625-36.617187 18.335938-45.105468 23.175781-11.480469-6.289062-27.230469-8.246093-42.414063-8.246093-17.695312 0-34.613281 2.660156-43.074219 4.234374l-124.300781-107.867187c-2.542969-2.210937-6.027343-2.988281-9.269531-2.070313l-38.109375 10.777344-17.21875-33.714844 27.359375-69.859374c1.023438-2.617188.902344-5.546876-.335938-8.066407l-24.339843-49.554687c20.679687-8.957032 65.96875-29.550782 80.4375-44.03125 37.398437-37.429688 100.574219-90.136719 123.925781-90.136719 16.101562 0 32.128906 8.078125 47.632812 15.890625 14.417969 7.269531 28.035157 14.128906 41.367188 14.128906 7.078125 0 15.597656-.960937 24.617188-1.976562 19.820312-2.238282 46.96875-5.300782 56.3125 4.050781 8.679687 8.683594 18.3125 19.089844 27.628906 29.15625 9.242187 9.980469 18.796875 20.304687 27.371094 28.886719 9.199218 9.207031 19.8125 12.730468 28.339843 15.5625 10.730469 3.566406 10.730469 4.332031 10.730469 6.382812 0 .175782-9.058594 6.988282-13.574219 9.445313-13.261719 7.210937-31.425781 17.085937-31.425781 38.589843 0 16.238282 11.59375 44.59375 23.871094 74.621094 9.902344 24.222656 21.128906 51.679688 21.128906 62.480469 0 23.410156-18.878906 45.203125-37.589844 56.414063zm0 0" fill="#8c8c8c"/><path d="m383.832031 209.503906c5.539063-23.359375 3.648438-48.402344-5.054687-66.988281-1.542969-3.296875-4.75-5.492187-8.378906-5.738281l-59.222657-4.019532c-17.882812-34.96875-46.570312-43.132812-67.996093-43.664062-23.480469-.589844-42.78125 7.871094-43.589844 8.230469-.167969.074219-.332032.152343-.496094.238281-32.359375 16.582031-54.191406 42.417969-61.464844 72.757812-7.035156 29.339844.304688 60.996094 20.664063 89.140626 12.757812 17.632812 42.53125 38.101562 80.296875 44.085937 6.285156.996094 13.390625 1.671875 21.09375 1.671875 22.246094 0 49.511718-5.628906 76.617187-25.410156 30.84375-22.511719 42.871094-50.65625 47.53125-70.304688zm-52.410156 24.003906c-4.230469-3.550781-10.539063-2.996093-14.085937 1.242188-3.546876 4.238281-2.992188 10.550781 1.242187 14.097656l11.972656 10.039063c-1.929687 1.621093-3.925781 3.210937-6.035156 4.753906-8.679687 6.332031-17.375 10.957031-25.851563 14.257813l-3.25-9.074219c-1.863281-5.203125-7.589843-7.90625-12.789062-6.042969s-7.902344 7.59375-6.039062 12.796875l2.796874 7.808594c-14.289062 2.644531-27.292968 2.035156-37.664062.394531-4.746094-.753906-9.339844-1.777344-13.761719-3.011719l1.078125-2.273437c2.367188-4.992188.246094-10.960938-4.742187-13.332032-4.988281-2.371093-10.957031-.246093-13.324219 4.746094l-1.855469 3.910156c-16.113281-7.484374-28.363281-17.445312-34.617187-26.09375-17.128906-23.671874-23.152344-48.824218-17.417969-72.730468 5.871094-24.484375 23.921875-45.59375 50.851563-59.46875 4.792968-2.042969 62.421874-25.167969 87.429687 30.503906 16.324219 40.308594-1.625 66.214844-22.273437 76.21875-19.503907 9.449219-47.082032 7.476562-61.550782-19.175781-11.792968-21.726563 3.515625-36.761719 18.613282-45.601563.910156-.398437 5.152343-2.117187 10.453124-1.847656 7.492188.382812 14.058594 4.660156 19.511719 12.710938 5.167969 7.632812 2.1875 15.949218-1.949219 19.023437-5.460937 4.046875-11.660156-2.003906-14.871093-5.972656-3.476563-4.296875-9.773438-4.957031-14.066407-1.480469-4.289062 3.476562-4.953124 9.777344-1.480468 14.074219 15.25 18.847656 32.332031 16.875 42.332031 9.453125 12.152344-9.019532 18.125-29.296875 6.589844-46.328125-18.324219-27.046875-44.484375-23.203125-55.757813-17.394531-.144531.074218-.289062.15625-.429687.238281-30.957031 17.933593-41.117188 45.78125-26.519531 72.675781 13.257812 24.421875 35.277343 34.753906 56.984374 34.753906 10.726563 0 21.378907-2.523437 30.855469-7.113281 16.699219-8.089844 29.316407-22.039063 35.523438-39.269531 5.234375-14.527344 5.660156-30.757813 1.410156-47.664063l44.097656 2.992188c3.277344 9.335937 4.855469 20.945312 3.914063 33.429687l-16.222656-2.5c-5.457032-.835937-10.5625 2.90625-11.402344 8.371094-.839844 5.460938 2.902344 10.570312 8.363281 11.410156l15.703125 2.417969c-3.449219 11.953125-9.390625 24.035156-18.488281 35.183594zm0 0" fill="#8c8c8c"/><path d="m421.628906 257.058594c-5.449218.820312-9.21875 5.925781-8.410156 11.378906.363281 2.378906 1.570312 4.5625 3.402344 6.125 1.808594 1.550781 4.109375 2.402344 6.480468 2.402344.5 0 1-.042969 1.5-.113282 5.449219-.820312 9.21875-5.921874 8.398438-11.386718-.351562-2.382813-1.5625-4.554688-3.390625-6.125-2.1875-1.871094-5.117187-2.710938-7.980469-2.28125zm0 0" fill="#8c8c8c"/><path d="m439.699219 310.058594c-.820313-5.410156-5.96875-9.21875-11.378907-8.410156-5.402343.8125-9.207031 6-8.390624 11.390624l1.859374 12.367188c-4.339843-.726562-8.820312-1.109375-13.328124-1.109375h-.03125c-13.359376.019531-27.1875 3.164063-41.101563 9.347656-9.628906 4.300781-15.957031 8.636719-17.128906 9.457031l-.03125.03125c-4.476563 3.210938-5.507813 9.472657-2.289063 13.957032 3.113282 4.339844 9.640625 5.382812 13.960938 2.292968.28125-.199218 5.808594-4.0625 14.449218-7.828124 7.5625-3.300782 19.261719-7.242188 32.039063-7.242188h.101563c7.78125.007812 14.898437 1.378906 21.769531 4.191406 7.074219 2.894532 14.832031-3.21875 13.691406-10.757812-1.371094-9.023438-2.808594-18.582032-4.191406-27.6875zm0 0" fill="#8c8c8c"/><path d="m344.601562 88.964844 31.4375 4.492187s30.40625 33.191407 30.589844 33.394531c3.667969 4.003907 10.164063 4.257813 14.128906.613282 4.03125-3.707032 4.316407-10.109375.613282-14.140625l-33-36.027344c-1.5625-1.699219-3.671875-2.8125-5.960938-3.140625 0 0-34.929687-4.996094-35-5.003906-5.414062-.773438-10.546875 3.097656-11.308594 8.496094-.78125 5.453124 3.027344 10.535156 8.5 11.316406zm0 0" fill="#8c8c8c"/><path d="m202 76.03125c1.367188.011719 2.75-.257812 4.0625-.835938l27-12.007812c5.039062-2.242188 7.316406-8.164062 5.078125-13.210938-2.210937-4.980468-8.234375-7.277343-13.199219-5.082031 0 0-26.949218 11.984375-27 12.007813-5 2.222656-7.296875 8.199218-5.082031 13.207031 1.628906 3.683594 5.324219 5.894531 9.140625 5.921875zm0 0" fill="#8c8c8c"/><path d="m98.992188 148.121094c-1.355469-.007813-2.722657.261718-4.023438.839844l-25 11.007812c-4.929688 2.171875-7.25 7.792969-5.277344 12.816406 0 0 10.96875 27.945313 11 28.023438 1.996094 5.089844 7.898438 7.628906 12.96875 5.652344 5.128906-2.019532 7.660156-7.84375 5.648438-12.980469l-7.488282-19.074219 16.210938-7.132812c5.039062-2.222657 7.339844-8.136719 5.117188-13.1875-1.617188-3.691407-5.324219-5.9375-9.15625-5.964844zm0 0" fill="#8c8c8c"/><path d="m286 349.257812h-40c-5.507812 0-10 4.492188-10 10.003907 0 5.515625 4.492188 10.007812 10 10.007812h40c5.511719 0 10-4.492187 10-10.007812 0-5.511719-4.488281-10.003907-10-10.003907zm0 0" fill="#8c8c8c"/><path d="m201 349.257812c-5.507812 0-10 4.492188-10 10.003907 0 5.515625 4.492188 10.007812 10 10.007812 5.511719 0 10-4.492187 10-10.007812 0-5.511719-4.488281-10.003907-10-10.003907zm0 0" fill="#8c8c8c"/></g><g transform="matrix(0.07496582716703415 0 0 0.07496582716703415 220.43217782360193 164.05566909069)" id="L1_35"><path d="m440.464844 138.773438c-10.320313-9.214844-19.746094-19.382813-28.15625-30.367188-38.171875-45.65625-95.761719-114.632812-190.90625-107.855469-94.222656 6.730469-109.460938 64.820313-117.648438 96.023438-1.125 5.425781-2.808594 10.714843-5.027344 15.789062-4.070312 1.945313-8.246093 3.660157-12.507812 5.132813-10.4375 3.820312-23.148438 8.472656-25.832031 22.4375-14.972657 7.421875-60.242188 33.21875-60.242188 73.929687-1.085937 13.304688 4.050781 26.359375 13.914063 35.351563 6.578125 6.714844 12.253906 12.515625 3.40625 47.910156-7.304688 29.207031 4.164062 45.636719 12.800781 53.4375-13.703125 12.003906-27.554687 29.660156-21.15625 48.78125 6.710937 20.125 20.230469 18.558594 31.066406 17.3125 11.199219-2.089844 22.773438-.441406 32.945313 4.6875 38.902344 19.933594 81.742187 30.996094 125.429687 32.390625 20.660157.183594 41.183594-3.351563 60.585938-10.445313 49.90625-19.851562 104.613281-24.300781 157.070312-12.769531 18.058594 4.746094 37.300781.84375 52.082031-10.570312 10.492188-7.390625 17.175782-19.050781 18.253907-31.84375-.183594-8.460938-5.855469-15.816407-13.996094-18.144531 3.523437-5.421876 5.421875-11.738282 5.460937-18.207032 0-4.710937-3.820312-8.53125-8.53125-8.53125-4.714843 0-8.535156 3.820313-8.535156 8.53125-.230468 5.515625-2.828125 10.664063-7.125 14.125-3.671875-.285156-7.582031-.441406-11.796875-.417968 1.222657-4.464844 1.847657-9.074219 1.855469-13.707032 0-4.710937-3.820312-8.53125-8.53125-8.53125-4.714844 0-8.535156 3.820313-8.535156 8.53125.09375 5.078125-.964844 10.105469-3.101563 14.710938-4.773437.425781-9.628906.976562-14.582031 1.683594.390625-2.601563.597656-5.226563.617188-7.859376 0-4.714843-3.820313-8.535156-8.53125-8.535156-4.714844 0-8.535157 3.820313-8.535157 8.535156.023438 3.699219-.527343 7.382813-1.632812 10.914063l-.042969.003906c-6.386719 1.207031-12.914062 1.511719-19.386719.902344 2.703125-6.449219 4.0625-13.378906 3.996094-20.371094 0-4.714843-3.820313-8.535156-8.53125-8.535156-4.714844 0-8.535156 3.820313-8.535156 8.535156.171875 6.09375-1.378907 12.117188-4.476563 17.371094-5.320312-1.269531-10.699218-2.796875-16.136718-4.582031 2.199218-3.914063 3.414062-8.300782 3.546874-12.789063 0-4.714843-3.820312-8.535156-8.535156-8.535156-4.710937 0-8.53125 3.820313-8.53125 8.535156-.335937 2.539063-1.328125 4.945313-2.882812 6.980469-2.957032-1.113281-5.910156-2.238281-8.859375-3.375 2-3.738281 3.097656-7.886719 3.207031-12.121094 0-4.714844-3.820312-8.535156-8.53125-8.535156-4.714844 0-8.535156 3.820312-8.535156 8.535156-.238282 2.125-.996094 4.160156-2.199219 5.929688-2.113281-.800782-4.21875-1.546875-6.332031-2.324219v-12.15625c0-4.714844-3.820313-8.535156-8.535156-8.535156-4.710938 0-8.53125 3.820312-8.53125 8.535156v6.398437c-5.207032-1.574218-10.371094-2.996093-15.402344-4-48.386719-8.8125-97.535156-12.757812-146.710938-11.785156.175782-26.003906 2.199219-26.089844 25.578125-26.089844 17 0 35.167969-7.339843 54.394531-15.113281 5.238282-2.117187 10.652344-4.296875 16.203126-6.394531-3.15625 3.394531-3.015626 8.691406.320312 11.910156 3.335938 3.222656 8.632812 3.179688 11.914062-.089844 4.878907-5.335937 8.171876-11.925781 9.507813-19.03125 7.195313-2.035156 14.53125-3.527343 21.949219-4.460937.921875 4.691406.046875 9.5625-2.453125 13.640625-2.109375 4.214844-.402344 9.339844 3.8125 11.449219 4.21875 2.105469 9.34375.398437 11.453125-3.816407 3.683594-6.773437 5.207031-14.515624 4.363281-22.179687 6.230469.082031 13.054687.367187 20.265625.714844-1.5625 4.75-3.488281 9.375-5.761719 13.832031-1.363281 2.726562-1.171875 5.972656.507813 8.515625 1.683594 2.546875 4.589844 4 7.636718 3.820313 3.042969-.183594 5.757813-1.976563 7.121094-4.703126 3.402344-6.574218 6.097656-13.488281 8.042969-20.632812 5.628906.246094 11.367187.464844 17.199219.570312-.65625 3.765626-2.308594 7.289063-4.777344 10.207032-3.335938 3.332031-3.335938 8.738281-.003906 12.070312 3.332031 3.335938 8.734375 3.335938 12.070312.003906 5.578125-6.242187 9.113282-14.039062 10.132813-22.347656 6.042969-.160156 12.046875-.511718 17.964843-1.089844v8.867188c0 4.714844 3.820313 8.535156 8.535157 8.535156 4.710937 0 8.53125-3.820312 8.53125-8.535156v-11.3125c4.242187-.839844 8.441406-1.898438 12.574219-3.171875 2.660156 4.386719 4.203124 9.363281 4.496093 14.484375 0 4.714844 3.820313 8.535156 8.535157 8.535156 4.710937 0 8.53125-3.820312 8.53125-8.535156-.226563-7.34375-2.183594-14.53125-5.710938-20.980469 1.820312-.964843 3.625-1.949219 5.335938-3.050781.425781.753906.863281 1.421875 1.28125 2.25 1.363281 2.726562 4.078124 4.519531 7.121093 4.699219 3.042969.183593 5.953125-1.269531 7.632813-3.816407 1.679687-2.542968 1.875-5.789062.511718-8.519531-1.03125-2.027343-2.164062-4.003906-3.394531-5.917969 3.777344-4.324218 6.890625-9.183593 9.242188-14.421874 2.773437 1.09375 6.039062 2.316406 9.582031 3.546874-.742188 2.234376-1.933594 4.289063-3.5 6.042969-2.21875 2.144531-3.105469 5.316407-2.324219 8.300781.78125 2.980469 3.109375 5.3125 6.09375 6.09375s6.15625-.109374 8.296875-2.328124c3.53125-3.746094 6.171875-8.234376 7.730469-13.140626 5.910156 1.546876 11.925781 2.664063 18 3.339844-.769531 2.324219-2.015625 4.460938-3.664063 6.273438-2.214843 2.140625-3.105468 5.3125-2.324218 8.296875s3.109375 5.3125 6.09375 6.09375 6.15625-.109375 8.296875-2.328125c4.871093-5.296875 8.160156-11.851563 9.503906-18.921875 3.148437-.617188 6.160156-1.800781 8.890625-3.488281 6.410156-4.179688 10.105469-11.457032 9.707031-19.097657 0-19.894531-27.082031-41.640625-71.679687-75.089843zm-185.996094 215.039062c14.363281 3.363281 28.425781 7.90625 42.042969 13.589844h.007812c1.785157.691406 3.539063 1.355468 5.347657 2.058594 30.878906 12.007812 62.816406 24.398437 92.609374 18.457031 1.003907-.21875 2.074219-.433594 3.476563-.648438 10.011719-1.933593 20.121094-3.316406 30.28125-4.136719 8.394531-.742187 16.839844-.804687 25.246094-.183593 12.058593 1.152343 15.996093 4.226562 15.996093 5.15625-1.179687 7.488281-5.414062 14.148437-11.691406 18.394531-10.597656 8.265625-24.480468 11.03125-37.4375 7.460938-55.816406-12.332032-114.046875-7.6875-167.199218 13.34375-67 25.117187-142.878907-6.480469-172.386719-21.230469-13.140625-6.589844-28.039063-8.824219-42.535157-6.375-10.425781 1.203125-10.597656 1.210937-12.925781-5.765625-4.085937-12.214844 11.007813-26.554688 20.515625-34.113282 7.257813 2.886719 14.992188 4.386719 22.800782 4.425782 8.316406.101562 16.554687-1.59375 24.152343-4.980469 7.5-3.214844 13.445313-9.234375 16.570313-16.773437 48.632812-1.164063 97.261718 2.628906 145.128906 11.316406zm238.667969-135.160156c-9.539063 6.207031-43.160157-3.839844-62.863281-12.589844-2.257813-1-4.839844-.976562-7.078126.070312-2.238281 1.046876-3.910156 3.011719-4.589843 5.386719-9.203125 32.214844-46.261719 38.609375-85.230469 38.746094-.109375-.007813-.199219-.066406-.308594-.070313-.132812 0-.253906.070313-.390625.070313-12.902343.023437-26-.625-38.355469-1.238281-10.660156-.53125-20.726562-1.03125-29.644531-1.03125-15.332031.21875-30.550781 2.726562-45.140625 7.445312-.164062.039063-.308594.097656-.46875.148438-12.117187 3.730468-23.59375 8.3125-34.382812 12.671875-15.058594 7.417969-31.3125 12.113281-48.007813 13.867187-40.972656 0-42.660156 14.746094-42.667969 51.058594l-.027343.285156c-.640625 4.789063-3.9375 8.804688-8.511719 10.367188-10.324219 4.21875-21.847656 4.464844-32.34375.691406-.085938-.144531-.097656-.308594-.199219-.449219-1.710937-2.34375-4.507812-3.636719-7.402343-3.425781-.980469-.585938-1.925782-1.226562-2.832032-1.914062-9.792968-8.03125-12.789062-20.992188-8.667968-37.472657 10.363281-41.457031 3.316406-52.671875-7.765626-63.992187-6.6875-5.839844-10.070312-14.597656-9.046874-23.414063 0-36.488281 54.023437-60.191406 54.570312-60.425781 3.128906-1.347656 5.160156-4.429688 5.160156-7.839844 0-5.617187 2.121094-7.308594 15.144532-12.070312 4.867187-1.691406 9.632812-3.660156 14.273437-5.898438 7.9375-3.964844 10.4375-13.511718 13.90625-26.71875 8.089844-30.855468 20.324219-77.476562 102.351563-83.335937 3.859374-.273438 7.652343-.410157 11.378906-.40625 79.789062 0 130.882812 61.121093 165.21875 102.183593 9.179687 12.054688 19.570312 23.136719 31.007812 33.070313 27.371094 20.527344 64.855469 48.640625 64.855469 61.441406 0 3.523438-1.265625 4.34375-1.941406 4.789063zm0 0" fill="#8c8c8c"/><path d="m101.664062 200.054688c-5.488281-2.691407-10.640624-6.015626-15.355468-9.902344-7.925782-6.085938-18.761719-14.394532-29.558594-4.710938-8.34375 7.5-5.117188 17.585938-2.757812 24.945313 2.425781 7.574219 3.699218 12.523437 1.003906 17.363281-6.882813 12.375-2.824219 36.050781 10.921875 44.238281 3.222656 1.949219 6.914062 2.984375 10.679687 2.992188 9.359375 0 22.332032-6.316407 37.695313-30.476563 4.972656-7.882812 6.472656-17.46875 4.144531-26.496094-2.609375-8.199218-8.769531-14.792968-16.773438-17.953124zm-1.765624 35.292968c-11.800782 18.554688-21.179688 24.417969-25.242188 21.976563-5.488281-5.617188-7.324219-13.855469-4.742188-21.273438 4.660157-9.734375 4.78125-21.035156.328126-30.867187-.773438-2.199219-1.398438-4.453125-1.863282-6.742188 2.648438 1.550782 5.171875 3.304688 7.542969 5.25 5.75 4.710938 12.046875 8.714844 18.75 11.929688 3.441406 1.191406 6.164063 3.867187 7.417969 7.289062.90625 4.273438.121094 8.730469-2.191406 12.4375zm0 0" fill="#8c8c8c"/><path d="m179.109375 177.65625c-7.46875-18.402344-25.257813-30.515625-45.117187-30.722656-6.097657.15625-11.285157 4.492187-12.527344 10.464844-1.371094 4.765624-1.996094 9.71875-1.855469 14.675781 0 24.421875 13.15625 85.796875 44.222656 85.796875 7.121094.234375 13.886719-3.097656 18.042969-8.886719 13.535156-18.675781.308594-62.0625-2.476562-70.570313-.082032-.257812-.179688-.511718-.289063-.757812zm-11.050781 61.316406c-.957032 1.351563-2.585938 2.058594-4.226563 1.832032-3.769531 0-8.386719-4.21875-12.660156-11.578126-10.480469-20.015624-15.304687-42.507812-13.953125-65.058593 11.6875 1.390625 21.6875 9.042969 26.089844 19.957031 5.59375 17.261719 10.914062 46.339844 4.75 54.847656zm0 0" fill="#8c8c8c"/><path d="m222.914062 146.9375h-.019531c-9.378906-1.136719-18.648437 2.847656-24.273437 10.4375-7.71875 12.609375 1.21875 30.128906 9.101562 45.59375 2.722656 4.761719 4.949219 9.796875 6.640625 15.015625 0 2.78125 1.121094 9.5625 11.503907 12.460937 5.800781 1.25 11.734374 1.789063 17.664062 1.597657 31.652344 0 87.1875-9 95.984375-23.53125 2.792969-4.78125 2.632813-10.734375-.410156-15.359375-11.128907-19.753906-70.613281-46.214844-116.191407-46.214844zm8.113282 67.347656c-1.917969-6.664062-4.636719-13.066406-8.101563-19.070312-4.050781-7.941406-12.480469-24.46875-9.75-28.925782.515625-.847656 3.152344-2.285156 9.726563-2.285156h.019531c43.039063 0 93.523437 25.410156 100.796875 36.484375-12.914062 8.476563-77.777344 18.140625-92.691406 13.796875zm0 0" fill="#8c8c8c"/><path d="m388.410156 155.472656c-21.890625 0-38.402344 11.007813-38.402344 25.597656 0 14.59375 16.511719 25.601563 38.402344 25.601563s38.398438-11.003906 38.398438-25.601563c0-14.59375-16.507813-25.597656-38.398438-25.597656zm0 34.132813c-13.859375 0-21.332031-6.058594-21.332031-8.535157 0-2.472656 7.472656-8.53125 21.332031-8.53125s21.332032 6.058594 21.332032 8.53125c0 2.476563-7.472657 8.535157-21.332032 8.535157zm0 0" fill="#8c8c8c"/><path d="m103.441406 390.605469c-2.097656 4.210937-.390625 9.328125 3.816406 11.433593 11.875 5.699219 24.792969 8.90625 37.953126 9.433594 4.710937 0 8.53125-3.820312 8.53125-8.535156 0-4.710938-3.820313-8.53125-8.53125-8.53125-10.515626-.53125-20.820313-3.125-30.332032-7.640625-2.023437-1.007813-4.367187-1.171875-6.511718-.449219-2.144532.71875-3.917969 2.261719-4.925782 4.289063zm0 0" fill="#8c8c8c"/><path d="m363.277344 105.707031c-1.882813-1.261719-4.1875-1.71875-6.410156-1.273437-2.21875.441406-4.171876 1.753906-5.425782 3.636718-7.757812 12.65625-18.328125 23.351563-30.890625 31.253907-2.722656 1.371093-4.507812 4.09375-4.679687 7.136719-.175782 3.042968 1.289062 5.949218 3.835937 7.621093 2.550781 1.675781 5.796875 1.859375 8.519531.488281 15.277344-9.144531 28.117188-21.851562 37.417969-37.035156 2.613281-3.917968 1.550781-9.214844-2.367187-11.828125zm0 0" fill="#8c8c8c"/><path d="m290.285156 138.40625c1.320313 0 2.625-.308594 3.808594-.902344 14.511719-8.804687 25.179688-22.753906 29.878906-39.066406 1.492188-4.46875-.925781-9.304688-5.394531-10.792969-4.472656-1.492187-9.304687.921875-10.796875 5.394531-3.320312 12.027344-10.925781 22.425782-21.382812 29.234376-3.515626 1.792968-5.339844 5.761718-4.417969 9.597656.925781 3.835937 4.359375 6.535156 8.304687 6.535156zm0 0" fill="#8c8c8c"/><path d="m253.441406 129.433594c2.148438.71875 4.492188.554687 6.519532-.457032 2.023437-1.011718 3.566406-2.789062 4.277343-4.9375l8.535157-25.601562c.964843-2.890625.3125-6.078125-1.710938-8.359375s-5.109375-3.3125-8.097656-2.699219c-2.984375.609375-5.417969 2.765625-6.382813 5.660156l-8.535156 25.597657c-.714844 2.148437-.550781 4.492187.460937 6.515625 1.011719 2.027344 2.789063 3.566406 4.933594 4.28125zm0 0" fill="#8c8c8c"/><path d="m196.152344 119.265625-8.53125-34.132813c-.707032-2.996093-2.96875-5.378906-5.921875-6.238281-2.957031-.859375-6.144531-.0625-8.347657 2.089844-2.199218 2.148437-3.074218 5.316406-2.285156 8.292969l8.53125 34.132812c1.199219 4.507813 5.792969 7.222656 10.320313 6.089844 4.527343-1.132812 7.304687-5.691406 6.234375-10.234375zm0 0" fill="#8c8c8c"/><path d="m146.109375 133.6875c1.363281 2.726562 4.078125 4.519531 7.121094 4.703125 3.046875.183594 5.953125-1.273437 7.632812-3.816406 1.683594-2.546875 1.875-5.792969.511719-8.519531l-8.53125-17.066407c-2.109375-4.214843-7.234375-5.925781-11.449219-3.816406-4.21875 2.109375-5.925781 7.234375-3.816406 11.449219zm0 0" fill="#8c8c8c"/></g><path d="M476.735,165.166c-0.122-8.967-8.037-15.805-16.884-14.677c-2.056,0.26-50.702,6.785-81.28,41.961    c-0.147,0.169-0.29,0.344-0.437,0.514c-11.449-0.182-22.955,4.075-31.672,12.792l-28.187,28.187l10.366-93.976    c2.14-19.259-8.318-37.917-26.248-45.993c0.026-1.324,0.04-2.651,0.04-3.977c0-46.61-32.434-83.448-33.814-84.995    c-5.965-6.677-16.418-6.665-22.372,0c-1.38,1.545-33.814,38.383-33.814,84.995c0,0.939,0.015,1.878,0.028,2.816    c-19.546,7.245-31.365,26.778-29.103,47.141l10.367,93.988l-28.188-28.188c-8.275-8.276-19.464-13.011-31.689-12.812    c-20.471-23.73-54.686-39.034-81.699-42.454c-8.841-1.131-16.762,5.708-16.884,14.677c-0.028,2.072-0.338,51.152,30.241,86.331    c1.207,1.389,2.438,2.758,3.68,4.111c-0.668,10.342,2.3,20.919,9.04,29.627l66.795,86.313c5.57,7.197,9.575,15.693,11.583,24.571    l9.626,42.573c9.605,42.477,47.659,73.307,90.484,73.307c42.231,0,79.611-29.719,89.999-71.268l11.464-45.858    c2.04-8.16,5.633-15.709,10.68-22.438l65.59-87.455c6.54-8.721,9.342-19.288,8.562-29.586c1.176-1.285,2.342-2.583,3.485-3.898    C477.072,216.319,476.763,167.238,476.735,165.166z M257.466,40.924c7.107,11.991,14.966,29.642,14.966,49.072h-30    C242.433,70.693,250.341,52.972,257.466,40.924z M67.3,184.915c11.02,3.655,25.003,9.947,36.737,20.418    c-0.147,0.143-0.299,0.278-0.444,0.423l-20.096,20.097C74.051,212.426,69.492,196.865,67.3,184.915z M410.447,266.98    l-65.59,87.454c-7.458,9.944-12.769,21.101-15.784,33.162l-11.464,45.858c-7.032,28.128-32.642,48.544-60.894,48.544    c-28.933,0-54.681-20.996-61.222-49.924l-9.626-42.573c-2.967-13.121-8.887-25.679-17.119-36.315l-66.795-86.313    c-4.24-5.479-3.743-13.305,1.155-18.203l21.701-21.703c5.394-5.394,14.122-5.394,19.517,0l58.386,58.386    c9.987,9.987,27.066,1.802,25.516-12.251l-15.051-136.45c-0.988-8.894,5.945-16.656,14.908-16.656h55.832    c8.937,0,15.9,7.732,14.907,16.668l-15.049,136.438c-1.549,14.041,15.519,22.248,25.516,12.251l58.385-58.385    c5.381-5.38,14.136-5.38,19.517,0l21.973,21.973C413.99,253.767,414.541,261.522,410.447,266.98z M428.502,225.854l-20.097-20.098    c-0.143-0.143-0.292-0.275-0.437-0.415c11.677-10.382,25.676-16.679,36.718-20.358    C442.489,196.927,437.929,212.452,428.502,225.854z" transform="matrix(0.11718795448541641 0 0 0.11718795448541641 310 271)" id="L1_36" fill="#8c8c8c"/><g transform="matrix(0.08341601449104702 0.01853689200358892 -0.01853689200358892 0.08341601449104702 179.90997672904072 285.7156782952606)" id="L1_37"><rect x="200px" y="248px" width="16px" height="16px" fill="#8c8c8c"/><path d="M473.656,110.344C459.248,95.936,440.088,88,419.712,88h-26.176l-92.808-37.128C282.688,43.656,263.688,40,244.256,40     c-45.792,0-88.68,20.328-117.672,55.76c-14.896,18.208-24.72,40.024-28.64,63.024l-4.12-16.488l-26.6,6.656     C55.904,151.776,48,161.904,48,173.568c0,2.352,0.328,4.696,0.976,6.976l13.232,46.32c-2.704,1.352-5.52,2.448-8.432,3.272     l-7.96-31.832l-26.352,6.592C8,207.752,0,218,0,229.824c0,2.112,0.256,4.208,0.768,6.232L6.704,259.8     C2.368,268.968,0,279.032,0,289.48c0,10.736,2.536,21.488,7.336,31.088l3.592,7.176C24.712,355.312,32,386.176,32,417.008     C32,438.504,49.488,456,70.992,456c13.4,0,25.696-6.752,32.896-18.056L148.392,368h255.32c20.376,0,39.536-7.936,53.944-22.344     C472.064,331.248,480,312.096,480,291.72V288c0-7.496-5.2-13.76-12.176-15.488L440,244.688l-24,24l-24-24L364.688,272h-3.048     l-38.632-16.56l45.352-22.68L413.952,251l8.608-43H428l28,37.336l28.552-38.072C491.152,205.288,496,199.232,496,192v-27.712     C496,143.912,488.064,124.752,473.656,110.344z M71.104,164.472l11.08-2.768l11.6,46.408c-0.376-0.024-0.72-0.112-1.096-0.112     c-5.16,0-10.008,2.008-13.656,5.656l-3.072,3.072l-11.592-40.584C64.12,175.304,64,174.44,64,173.568     C64,169.256,66.92,165.512,71.104,164.472z M23.344,220.416l10.832-2.704l3.64,14.552c-6.584,0.608-12.72,3.336-17.456,8.072     c-0.56,0.56-1.048,1.176-1.592,1.752l-2.48-9.92c-0.192-0.76-0.288-1.552-0.288-2.344C16,225.36,19.016,221.496,23.344,220.416z      M108.808,400.392c-3.232-4.016-6.248-8.2-8.952-12.592l-13.632,8.376c3.984,6.472,8.672,12.48,13.664,18.224l-9.512,14.952     C86.144,436.024,78.888,440,70.992,440C58.312,440,48,429.688,48,417.008c0-33.296-7.872-66.64-22.76-96.424l-3.592-7.176     C17.952,306.016,16,297.744,16,289.48c0-9.8,2.672-19.168,7.576-27.368l0.184-0.048l-0.048-0.184     c2.224-3.672,4.848-7.128,7.96-10.24c2.344-2.344,5.472-3.64,8.792-3.64c3.4,0,6.744-0.336,10.04-0.848     C59.304,266.064,64,286.92,64,307.776v9.88c0,12.92,1.8,25.768,5.344,38.176l1.64,5.728c2.12,7.424,4.88,14.72,8.216,21.704     l14.44-6.888c-2.952-6.176-5.392-12.64-7.272-19.2l-1.64-5.728C81.592,340.456,80,329.088,80,317.656v-9.88     c0-22.328-4.824-44.656-13.92-65.048c7.448-3.208,14.312-7.8,20.224-13.712l4.04-4.04c0.616-0.624,1.472-0.976,2.344-0.976     c1.824,0,3.312,1.488,3.312,3.312V232v99.84l37.392,29.92L108.808,400.392z M440,267.312l4.688,4.688h-9.376L440,267.312z      M392,267.312l4.688,4.688h-9.376L392,267.312z M402.04,228.992l-14.528-5.808l17.432-8.72L402.04,228.992z M456,218.664L448,208     h16L456,218.664z M480,192h-65.888l-112,56H232v16h70.36l56,24H464v3.72c0,16.104-6.272,31.232-17.656,42.624     C434.96,345.728,419.816,352,403.712,352H146.808L112,324.16V232v-4.688V181.44c0-27.464,9.576-54.288,26.968-75.544     C164.912,74.184,203.288,56,244.256,56c17.384,0,34.384,3.272,50.528,9.728L390.464,104h29.256     c16.104,0,31.24,6.272,42.632,17.656C473.744,133.04,480,148.184,480,164.288V192z" fill="#8c8c8c"/><path d="M293.312,116.592l-36.84-24.56c-3.96-2.64-8.56-4.032-13.312-4.032h-33.272c-9.144,0-17.368,5.08-21.464,13.264     c-13.376,26.76-13.376,58.712,0,85.472c4.088,8.184,12.32,13.264,21.464,13.264h33.272c4.76,0,9.36-1.392,13.312-4.032     l36.84-24.56C300,166.944,304,159.48,304,151.44v-14.88C304,128.52,300,121.056,293.312,116.592z M288,151.432     c0,2.68-1.336,5.168-3.56,6.656l-36.848,24.56c-1.32,0.888-2.848,1.352-4.432,1.352h-33.272c-3.048,0-5.792-1.696-7.152-4.424     c-11.144-22.28-11.144-48.88,0-71.16c1.36-2.72,4.104-4.416,7.152-4.416h33.272c1.584,0,3.12,0.464,4.44,1.344l36.84,24.56     c2.224,1.488,3.56,3.976,3.56,6.656V151.432z" fill="#8c8c8c"/><path d="M416,120c-17.944,0-32,10.544-32,24s14.056,24,32,24c17.944,0,32-10.544,32-24S433.944,120,416,120z M416,152     c-9.768,0-16-4.736-16-8c0-3.264,6.232-8,16-8s16,4.736,16,8C432,147.264,425.768,152,416,152z" fill="#8c8c8c"/></g><g transform="matrix(-0.07477437065218918 0.017255623607064147 0.017255623607064147 0.07477437065218918 289.0618159488194 44.65370236344212)" id="L1_38"><path d="m11.976562 194.03125c9.878907 4.65625 21.320313 4.648438 31.191407-.015625 3.8125 1.339844 6.933593 4.136719 8.679687 7.78125 1.65625 4.785156-.941406 12.101563-7.308594 20.597656-27.628906 36.839844-51.390624 71.519531-38.816406 91.007813 3.496094 5.066406 8.878906 8.523437 14.945313 9.59375 12.300781 52.964844 52.75 94.863281 105.25 109.015625 30.902343 9.378906 62.832031 14.9375 95.082031 16.554687 16.878906.34375 33.59375 3.347656 49.53125 8.910156 15.792969 5.296876 31.113281 11.902344 45.8125 19.746094 15.265625 9.441406 32.804688 14.566406 50.753906 14.824219 32.132813-.945313 61.550782-18.25 77.988282-45.878906 4.929687-8.023438 10.042968-19.082031 6.445312-26.199219-2.769531-5.242188-7.714844-8.988281-13.511719-10.238281 1-12.269531 1.253907-22.523438 1.265625-23.039063.105469-4.710937-3.625-8.617187-8.335937-8.726562-2.277344-.113282-4.503907.714844-6.152344 2.289062-1.652344 1.578125-2.582031 3.761719-2.570313 6.042969 0 .125-.25 9.910156-1.179687 21.511719l-.714844-.039063c-3.328125-.179687-7.019531-.421875-10.898437-.738281 1.820312-16.523438 2.265625-33.394531 2.289062-34.226562.117188-4.710938-3.601562-8.625-8.3125-8.746094-2.28125-.121094-4.507812.699218-6.164062 2.273437-1.652344 1.570313-2.585938 3.753907-2.582032 6.039063-.007812.195312-.445312 16.554687-2.136718 32.265625-4.097656-.75-8.210938-1.675781-12.289063-2.761719 2.523438-13.519531 3.835938-27.234375 3.925781-40.984375 0-4.714844-3.820312-8.535156-8.535156-8.535156-4.710937 0-8.53125 3.820312-8.53125 8.535156-.109375 11.992187-1.183594 23.957031-3.21875 35.773437-3.890625-1.472656-7.847656-3.132812-11.867187-4.980468 1.507812-15.3125 1.921875-29.867188 1.941406-30.5625.125-4.707032-3.585937-8.632813-8.296875-8.761719-2.277344-.121094-4.507812.699219-6.164062 2.265625-1.65625 1.570312-2.597657 3.75-2.601563 6.03125 0 .140625-.292969 10.460938-1.261719 22.574219-4.167968-2.375-8.332031-4.921875-12.492187-7.636719 1.003906-12.296875 1.28125-22.53125 1.289062-23.015625.0625-2.261719-.78125-4.457031-2.339843-6.097656-1.558594-1.640625-3.707032-2.597657-5.96875-2.652344-2.273438-.097656-4.488282.730469-6.136719 2.296875-1.648438 1.566406-2.59375 3.734375-2.613281 6.011719 0 .078125-.136719 4.957031-.535157 11.859375-4.570312-3.535156-9.179687-7.359375-13.832031-11.472656.921875-12.03125 1.207031-21.914063 1.21875-22.375.128906-4.710938-3.582031-8.632813-8.292969-8.765626-2.289062-.164062-4.542969.640626-6.207031 2.214844-1.667969 1.578125-2.597656 3.78125-2.558594 6.078125 0 .0625-.09375 3.199219-.328125 8.007813-2.980469-2.839844-5.941406-5.679688-8.828125-8.46875-32.800781-31.675782-64.070312-61.726563-125.597656-63.917969 10.546875-6.644531 22.75-9.082031 43.417969-3.90625 30.085937 7.300781 61.367187 8.214844 91.828125 2.691406 2.132812-.269531 4.332031-.542969 6.527344-.816406-.507813 1.066406-1.003907 2.09375-1.492188 3.046875-1.378906 2.71875-1.207031 5.964844.457031 8.523438 1.664063 2.554687 4.5625 4.027343 7.609375 3.863281 3.042969-.160157 5.769532-1.9375 7.152344-4.652344 1.816406-3.578125 3.730469-7.765625 5.886719-12.886719 5.054687-.4375 10.363281-.773437 15.933593-1-.953124 2.121094-1.921874 4.214844-2.90625 6.15625-1.433593 2.726563-1.289062 6.011719.378907 8.597656 1.667969 2.585938 4.601562 4.074219 7.671875 3.894532 3.074218-.179688 5.808594-2.003906 7.164062-4.765625 2.273438-4.484375 4.460938-9.5 6.371094-14.105469 3.375.066406 6.917969.21875 10.511719.402344-2.363281 5.703125-4.539063 10.589844-6.523438 14.558594-2.109375 4.214843-.398437 9.339843 3.816407 11.449218 4.214843 2.105469 9.339843.398438 11.449218-3.816406 2.753906-5.507812 5.777344-12.4375 9.152344-20.886719 5.289062.511719 10.371094.75 15.34375.851563-1.808594 4.328125-3.699219 8.589844-5.613281 12.375-1.375 2.71875-1.195313 5.96875.472656 8.519531 1.671875 2.554687 4.574219 4.019531 7.617187 3.851563 3.046876-.167969 5.769532-1.949219 7.144532-4.671876 3.207031-6.34375 6.273437-13.6875 9.015625-20.613281 5.792969-.464843 11.324219-1.179687 16.601562-2.113281-2.066406 5.042969-4.386719 10.363281-6.734375 15.058594-2.109375 4.21875-.398437 9.34375 3.816406 11.453125 4.214844 2.105469 9.34375.398437 11.449219-3.816407 4.523438-9.046874 8.875-20.019531 11.710938-27.558593 5.136719-1.578125 10.011719-3.296875 14.480469-5.148438-2.238282 5.53125-4.773438 11.402344-7.332032 16.554688-1.382812 2.734375-1.195312 6 .492188 8.558593 1.6875 2.554688 4.617187 4.011719 7.675781 3.8125 3.054687-.199218 5.773437-2.019531 7.117187-4.773437 5.539063-11.671875 10.457032-23.625 14.730469-35.816406 3.691407-2.304688 6.898438-4.511719 9.621094-6.542969-1.027344 6.113281-2.875 12.058594-5.496094 17.679688-2.105469 4.214843-.398437 9.339843 3.816407 11.449218 4.214843 2.109375 9.34375.398438 11.449218-3.816406 5.90625-13.835938 9.089844-28.675781 9.375-43.71875 4.890625-5.539062 7.898438-12.484375 8.597656-19.839844 0-83.691406-25.140624-132.414062-74.730468-144.808594-32.808594-8.191406-62.042969-5.082031-90.335938-2.070312-32.222656 3.429688-65.527344 6.976562-105.300781-6.28125-21.875-7.363281-43.253906-16.128906-64-26.234375-26.757813-12.621094-42.925781-20.226563-62.902344-6.902344-13.675781 11.097657-25.15625 24.652344-33.847656 39.972657-10.476563 15.800781-21.304687 32.140624-32.382813 35.832031-28.105468 9.363281-48.5 45.070312-48.5 84.894531-1.101562 10.242188 3.414063 20.28125 11.8125 26.25zm266.445313 168.398438c9.652344 8.839843 19.917969 16.984374 30.71875 24.375.472656.363281 1.058594.769531 2.023437 1.410156 8.632813 5.792968 17.617188 11.050781 26.894532 15.742187.148437.101563.3125.179688.46875.269531l.21875.128907c.121094.066406.230468.144531.355468.203125 9.109376 4.527344 18.542969 8.363281 28.222657 11.484375l.066406.015625h.019531c9.828125 3.148437 19.917969 5.425781 30.148438 6.804687.324218.085938.65625.152344.992187.203125l.0625.019532.074219.007812.097656.019531c7.945313 1.007813 14.980469 1.386719 20.636719 1.6875 3.160156.171875 6.019531.316407 8.613281.5625 2.558594.0625 5.089844.582031 7.464844 1.542969-2.472656 10.492188-26.953125 48.074219-68.402344 48.074219-15.246094-.253907-30.121094-4.738281-42.96875-12.945313-15.460937-8.246094-31.582031-15.183594-48.199218-20.75-17.375-6.050781-35.59375-9.34375-53.992188-9.753906-31.046875-1.574219-61.785156-6.941406-91.53125-15.984375-44.832031-12.015625-79.84375-47.042969-91.835938-91.882813 4.925782-.539062 9.816407-1.367187 14.644532-2.488281 10.628906-2.320312 20.9375-5.914062 30.707031-10.703125 18.589844 19.910156 41.585937 35.1875 67.140625 44.601563 17.683594 6.046875 35.910156 10.375 54.421875 12.925781 16.320313 2.039062 32.300781 6.242188 47.507813 12.503906 4.378906 1.753906 9.34375-.375 11.097656-4.753906 1.75-4.375-.378906-9.34375-4.753906-11.09375-16.417969-6.746094-33.65625-11.289062-51.261719-13.523438-17.558594-2.394531-34.84375-6.496093-51.605469-12.242187-21.636719-7.980469-41.210938-20.714844-57.277344-37.257813 8.132813-5.691406 15.78125-12.039062 22.871094-18.980468 68.621094-4.25 99.03125 24.992187 134.085938 58.839844 7.105468 6.867187 14.457031 13.96875 22.273437 20.9375zm-224.359375-263.355469c16.65625-5.542969 28.582031-23.539063 41.210938-42.589844 7.558593-13.347656 17.40625-25.265625 29.089843-35.203125 11.445313-7.640625 19.617188-4.375 46.160157 8.136719 21.363281 10.386719 43.367187 19.402343 65.875 26.992187 43.304687 14.429688 78.476562 10.683594 112.507812 7.058594 28.039062-2.992188 54.519531-5.8125 84.390625 1.65625 41.007813 10.25 61.800781 53.40625 61.800781 128.253906-2.65625 7.539063-7.496094 14.117188-13.90625 18.894532-10.195312 9.21875-48.523437 38.800781-113.246094 32.347656-12.949218-1.292969-24.457031-1.761719-35.070312-1.773438-.207031-.003906-.40625-.015625-.609375 0-19 .167969-37.964844 1.609375-56.773437 4.3125-28.355469 5.253906-57.5 4.460938-85.527344-2.320312-41.9375-10.476563-59.269532 6.035156-77.625 23.523437-16.753906 18.195313-38.679688 30.816407-62.832032 36.15625-24.839843 5.515625-29.050781.25-29.449218-.367187-7.167969-11.113282 26.921875-56.578125 38.125-71.511719 10.234375-13.640625 13.5-25.953125 9.722656-36.605469-4.214844-9.71875-12.722656-16.917968-23.003906-19.464844-1.96875-.484374-4.042969-.261718-5.863282.632813-5.496093 3.121094-12 3.949219-18.105468 2.304687-3.222656-2.011718-3.703125-8.210937-3.703125-11.726562 0-32.171875 15.832031-61.707031 36.832031-68.707031zm0 0" fill="#8c8c8c"/><path d="m461.21875 152.785156c1.195312 4.511719 5.792969 7.222656 10.320312 6.089844 4.527344-1.132812 7.304688-5.691406 6.234376-10.230469-4.488282-20.441406-14.066407-39.414062-27.84375-55.164062-3.339844-3.253907-8.671876-3.222657-11.976563.066406s-3.355469 8.621094-.113281 11.976563c11.511718 13.625 19.535156 29.84375 23.378906 47.261718zm0 0" fill="#8c8c8c"/><path d="m401.230469 176.3125c6.652343.386719 13.226562-1.621094 18.527343-5.660156 4.5-3.855469 7.007813-9.535156 6.828126-15.453125.003906-16.152344-17.078126-38.617188-33.890626-38.617188-14.492187 0-23.464843 15.503907-23.464843 29.863281-.195313 8.363282 3.1875 16.40625 9.300781 22.113282 6.113281 5.707031 14.371094 8.527344 22.699219 7.753906zm-8.535157-42.664062c9.042969 3.679687 15.449219 11.886718 16.828126 21.550781 0 1.757812-.554688 2.226562-.792969 2.425781-2.253907 1.355469-4.890625 1.925781-7.5 1.621094-12.34375 0-14.933594-6.960938-14.933594-12.800782 0-6.941406 3.925781-12.796874 6.398437-12.796874zm0 0" fill="#8c8c8c"/><path d="m256.164062 150.714844c-1.378906 19.078125 10.789063 36.519531 29.175782 41.8125 2.332031.558594 4.726562.847656 7.128906.851562 9.429688.285156 18.1875-4.863281 22.527344-13.242187 5.015625-10.042969 23.644531-4.308594 23.800781-4.257813 2.601563.867188 5.464844.429688 7.6875-1.175781 2.226563-1.601563 3.546875-4.179687 3.546875-6.921875 0-45.941406-44.125-76.800781-85.335938-76.800781-5.0625-.363281-10.003906 1.652343-13.371093 5.449219-4.550781 5.933593-2.609375 13.179687-.152344 22.359374 3.121094 10.363282 4.800781 21.105469 4.992187 31.925782zm75.777344 6.492187c-12.898437-2.285156-25.828125 3.851563-32.214844 15.289063-2.273437 3.433594-6.609374 4.851562-10.46875 3.425781-7.394531-1.742187-16.027343-9.394531-16.027343-25.207031-.164063-12.3125-2.039063-24.546875-5.570313-36.34375-.554687-2.066406-1.1875-4.433594-1.597656-6.308594 25.757812.582031 59.605469 17.5625 65.878906 49.144531zm0 0" fill="#8c8c8c"/><path d="m177.6875 142.015625c3.398438.558594 6.71875 1.535156 9.878906 2.898437-.84375 1.371094-2.21875 3.191407-3.226562 4.535157-4.933594 6.550781-15.207032 20.171875-2.476563 32.898437 15.195313 15.203125 29.121094 23.035156 40.265625 23.035156 5.4375.082032 10.671875-2.074218 14.46875-5.96875 8.136719-8.136718 2.9375-19.75-1.65625-30-3.761718-8.398437-8.019531-17.921874-5.277344-23.414062 6.121094-14.945312 4.574219-31.933594-4.152343-45.527344-6.125-9.917968-21.382813-26.558594-54.679688-26.558594-12.820312 0-25.003906 13.679688-26.605469 29.871094-1.480468 14.949219 6.53125 32.847656 33.460938 38.230469zm-6.855469-51.035156c23.765625 0 34.960938 10.042969 40.164063 18.460937 5.621094 8.570313 6.878906 19.285156 3.402344 28.921875-6.359376 12.722657-.082032 26.753907 4.96875 38.027344 1.820312 3.675781 3.289062 7.519531 4.382812 11.476563-2.71875.464843-5.515625.023437-7.957031-1.261719-8.195313-4.105469-15.601563-9.632813-21.863281-16.324219-1.535157-1.535156-2.238282-2.238281 4.039062-10.558594 5.710938-5.300781 8.179688-13.238281 6.480469-20.84375-3.246094-8.507812-13.65625-11.648437-23.410157-13.597656-13.78125-2.757812-20.820312-9.792969-19.828124-19.8125.839843-8.515625 6.746093-14.488281 9.621093-14.488281zm0 0" fill="#8c8c8c"/><path d="m76.964844 142.179688c8.386718 0 17.066406 25.34375 17.066406 34.132812 0 1.75-.722656 6.472656-1.355469 10.632812-2.824219 18.535157-4.140625 30.246094 1.335938 36.628907 2.128906 2.511719 5.257812 3.957031 8.550781 3.941406 11.460938-1.695313 21.671875-8.160156 28.105469-17.792969 7.707031-10.375 9.800781-23.886718 5.589843-36.109375-2.875-11.839843-4.332031-23.976562-4.339843-36.160156-1.167969-24.035156-2.269531-46.734375-17.003907-54.101563-4.648437-2.328124-14.367187-4.476562-27.160156 7.148438-9.945312 9.046875-26.019531 32.328125-21.285156 44.574219 1.644531 4.347656 5.847656 7.195312 10.496094 7.105469zm26.21875-42.113282c2.28125-1.421875 3.738281-1.632812 4.097656-1.449218 5.800781 2.902343 6.878906 25.023437 7.59375 39.667968.015625 13.742188 1.761719 27.425782 5.195312 40.730469 2.371094 6.605469 1.417969 13.945313-2.558593 19.726563-2.644531 3.945312-6.128907 7.253906-10.207031 9.6875.230468-5.695313 1.519531-14.144532 2.246093-18.90625.796875-4.367188 1.3125-8.777344 1.546875-13.210938 0-8.191406-7.3125-43.632812-27.5-50.160156 4.054688-10.304688 10.824219-19.316406 19.585938-26.085938zm0 0" fill="#8c8c8c"/></g></defs><g fi:class="KUsePattern"><pattern id="pattern_L1_32" width="350" height="350" patternUnits="userSpaceOnUse"><use xlink:href="#L1_32" x="-350" y="-350"/><use xlink:href="#L1_32" x="0" y="-350"/><use xlink:href="#L1_32" x="350" y="-350"/><use xlink:href="#L1_32" x="-350" y="0"/><use xlink:href="#L1_32" x="0" y="0"/><use xlink:href="#L1_32" x="350" y="0"/><use xlink:href="#L1_32" x="-350" y="350"/><use xlink:href="#L1_32" x="0" y="350"/><use xlink:href="#L1_32" x="350" y="350"/></pattern><rect x="0" y="0" width="100%" height="100%" fill="url(#pattern_L1_32)"/></g><g fi:class="KUsePattern"><pattern id="pattern_L1_33" width="350" height="350" patternUnits="userSpaceOnUse"><use xlink:href="#L1_33" x="-350" y="-350"/><use xlink:href="#L1_33" x="0" y="-350"/><use xlink:href="#L1_33" x="350" y="-350"/><use xlink:href="#L1_33" x="-350" y="0"/><use xlink:href="#L1_33" x="0" y="0"/><use xlink:href="#L1_33" x="350" y="0"/><use xlink:href="#L1_33" x="-350" y="350"/><use xlink:href="#L1_33" x="0" y="350"/><use xlink:href="#L1_33" x="350" y="350"/></pattern><rect x="0" y="0" width="100%" height="100%" fill="url(#pattern_L1_33)"/></g><g fi:class="KUsePattern"><pattern id="pattern_L1_35" width="350" height="350" patternUnits="userSpaceOnUse"><use xlink:href="#L1_35" x="-350" y="-350"/><use xlink:href="#L1_35" x="0" y="-350"/><use xlink:href="#L1_35" x="350" y="-350"/><use xlink:href="#L1_35" x="-350" y="0"/><use xlink:href="#L1_35" x="0" y="0"/><use xlink:href="#L1_35" x="350" y="0"/><use xlink:href="#L1_35" x="-350" y="350"/><use xlink:href="#L1_35" x="0" y="350"/><use xlink:href="#L1_35" x="350" y="350"/></pattern><rect x="0" y="0" width="100%" height="100%" fill="url(#pattern_L1_35)"/></g><g fi:class="KUsePattern"><pattern id="pattern_L1_36" width="350" height="350" patternUnits="userSpaceOnUse"><use xlink:href="#L1_36" x="-350" y="-350"/><use xlink:href="#L1_36" x="0" y="-350"/><use xlink:href="#L1_36" x="350" y="-350"/><use xlink:href="#L1_36" x="-350" y="0"/><use xlink:href="#L1_36" x="0" y="0"/><use xlink:href="#L1_36" x="350" y="0"/><use xlink:href="#L1_36" x="-350" y="350"/><use xlink:href="#L1_36" x="0" y="350"/><use xlink:href="#L1_36" x="350" y="350"/></pattern><rect x="0" y="0" width="100%" height="100%" fill="url(#pattern_L1_36)"/></g><g fi:class="KUsePattern"><pattern id="pattern_L1_37" width="350" height="350" patternUnits="userSpaceOnUse"><use xlink:href="#L1_37" x="-350" y="-350"/><use xlink:href="#L1_37" x="0" y="-350"/><use xlink:href="#L1_37" x="350" y="-350"/><use xlink:href="#L1_37" x="-350" y="0"/><use xlink:href="#L1_37" x="0" y="0"/><use xlink:href="#L1_37" x="350" y="0"/><use xlink:href="#L1_37" x="-350" y="350"/><use xlink:href="#L1_37" x="0" y="350"/><use xlink:href="#L1_37" x="350" y="350"/></pattern><rect x="0" y="0" width="100%" height="100%" fill="url(#pattern_L1_37)"/></g><g fi:class="KUsePattern"><pattern id="pattern_L1_38" width="350" height="350" patternUnits="userSpaceOnUse"><use xlink:href="#L1_38" x="-350" y="-350"/><use xlink:href="#L1_38" x="0" y="-350"/><use xlink:href="#L1_38" x="350" y="-350"/><use xlink:href="#L1_38" x="-350" y="0"/><use xlink:href="#L1_38" x="0" y="0"/><use xlink:href="#L1_38" x="350" y="0"/><use xlink:href="#L1_38" x="-350" y="350"/><use xlink:href="#L1_38" x="0" y="350"/><use xlink:href="#L1_38" x="350" y="350"/></pattern><rect x="0" y="0" width="100%" height="100%" fill="url(#pattern_L1_38)"/></g></svg>